<svg width="28" height="27" viewBox="0 0 28 27" fill="none" xmlns="http://www.w3.org/2000/svg">
<g filter="url(#filter0_d_5144_32355)">
<path fill-rule="evenodd" clip-rule="evenodd" d="M13.0903 2.44254C13.6856 1.84728 14.6021 1.84728 15.1974 2.44254L23.1851 10.4302L25.4719 12.4188C25.4807 12.4264 25.4892 12.4343 25.4974 12.4425C26.4217 13.3668 25.7761 14.8961 24.4438 14.8961H24.1438C23.8519 14.8961 23.6438 15.1392 23.6438 15.3961V21.5961C23.6438 22.5042 22.8869 23.0961 22.1438 23.0961H18.2438C17.3358 23.0961 16.7438 22.3392 16.7438 21.5961V17.4961C16.7438 17.2042 16.5008 16.9961 16.2438 16.9961H12.3438C12.0519 16.9961 11.8438 17.2392 11.8438 17.4961V21.5961C11.8438 22.5042 11.0869 23.0961 10.3438 23.0961H6.44385C5.53578 23.0961 4.94385 22.3392 4.94385 21.5961V15.3961C4.94385 15.1042 4.70076 14.8961 4.44385 14.8961H4.14385C2.81155 14.8961 2.16604 13.3668 3.0903 12.4425L13.0903 2.44254ZM14.4903 3.14965C14.2856 2.94491 14.0021 2.94491 13.7974 3.14965L3.7974 13.1496C3.52166 13.4254 3.67614 13.8961 4.14385 13.8961H4.44385C5.18694 13.8961 5.94385 14.488 5.94385 15.3961V21.5961C5.94385 21.853 6.15192 22.0961 6.44385 22.0961H10.3438C10.6008 22.0961 10.8438 21.888 10.8438 21.5961V17.4961C10.8438 16.753 11.4358 15.9961 12.3438 15.9961H16.2438C16.9869 15.9961 17.7438 16.588 17.7438 17.4961V21.5961C17.7438 21.853 17.9519 22.0961 18.2438 22.0961H22.1438C22.4008 22.0961 22.6438 21.888 22.6438 21.5961V15.3961C22.6438 14.653 23.2358 13.8961 24.1438 13.8961H24.4438C24.9057 13.8961 25.0621 13.437 24.8004 13.16L22.5158 11.1734C22.507 11.1658 22.4985 11.1579 22.4903 11.1496L14.4903 3.14965Z" fill="#508971"/>
</g>
<defs>
<filter id="filter0_d_5144_32355" x="0.65625" y="0.996094" width="27.2734" height="25.1016" filterUnits="userSpaceOnUse" color-interpolation-filters="sRGB">
<feFlood flood-opacity="0" result="BackgroundImageFix"/>
<feColorMatrix in="SourceAlpha" type="matrix" values="0 0 0 0 0 0 0 0 0 0 0 0 0 0 0 0 0 0 127 0" result="hardAlpha"/>
<feOffset dy="1"/>
<feGaussianBlur stdDeviation="1"/>
<feComposite in2="hardAlpha" operator="out"/>
<feColorMatrix type="matrix" values="0 0 0 0 0.0823529 0 0 0 0 0.545098 0 0 0 0 0.439216 0 0 0 0.4 0"/>
<feBlend mode="normal" in2="BackgroundImageFix" result="effect1_dropShadow_5144_32355"/>
<feBlend mode="normal" in="SourceGraphic" in2="effect1_dropShadow_5144_32355" result="shape"/>
</filter>
</defs>
</svg>
