<svg width="28" height="27" viewBox="0 0 28 27" fill="none" xmlns="http://www.w3.org/2000/svg">
<g filter="url(#filter0_d_6210_32023)">
<path fill-rule="evenodd" clip-rule="evenodd" d="M14.9133 2.09375C12.2623 2.09375 10.1133 4.24278 10.1133 6.89375C10.1133 9.54472 12.2623 11.6938 14.9133 11.6938C17.5642 11.6938 19.7133 9.54472 19.7133 6.89375C19.7133 4.24278 17.5642 2.09375 14.9133 2.09375ZM9.11328 6.89375C9.11328 3.6905 11.71 1.09375 14.9133 1.09375C18.1165 1.09375 20.7133 3.6905 20.7133 6.89375C20.7133 10.097 18.1165 12.6938 14.9133 12.6938C11.71 12.6938 9.11328 10.097 9.11328 6.89375Z" fill="#508971"/>
</g>
<g filter="url(#filter1_d_6210_32023)">
<path fill-rule="evenodd" clip-rule="evenodd" d="M15.5205 15.2001C15.5719 14.9288 15.8334 14.7504 16.1048 14.8018C19.9543 15.5301 23.2824 18.0248 25.0534 21.3585C25.1829 21.6023 25.0903 21.9051 24.8464 22.0346C24.6025 22.1642 24.2998 22.0715 24.1703 21.8276C22.5413 18.7613 19.4693 16.456 15.9189 15.7843C15.6475 15.733 15.4692 15.4714 15.5205 15.2001Z" fill="#508971"/>
</g>
<g filter="url(#filter2_d_6210_32023)">
<path fill-rule="evenodd" clip-rule="evenodd" d="M8.19661 11.6953H8.22842C8.62136 11.6953 8.97391 11.6953 9.43378 11.8102C9.61021 11.8543 9.74878 11.9908 9.79563 12.1665L10.1312 13.4249C10.4888 13.5716 10.8836 13.7525 11.2397 14.039L12.3752 13.7146C12.5655 13.6602 12.7699 13.7232 12.8966 13.8752C13.4147 14.4969 13.8653 15.1602 14.0933 15.958C14.1432 16.1325 14.0945 16.3205 13.9661 16.4489L13.1755 17.2394C13.1861 17.2999 13.193 17.3583 13.198 17.4125C13.2125 17.5729 13.2125 17.7421 13.2125 17.8847V17.8953C13.2125 18.082 13.183 18.242 13.1604 18.3646C13.1584 18.3758 13.1564 18.3867 13.1544 18.3973C13.142 18.4657 13.1309 18.5303 13.1233 18.599L13.9661 19.4418C14.1106 19.5863 14.1526 19.8044 14.0721 19.9923C14.066 20.0064 14.06 20.0205 14.0539 20.0347C13.7671 20.7042 13.4347 21.4802 12.8661 22.0489C12.7377 22.1773 12.5498 22.226 12.3752 22.1761L11.2084 21.8427C10.8822 22.0695 10.5082 22.2894 10.1222 22.464L9.7904 23.5424C9.73891 23.7097 9.60364 23.8379 9.43378 23.8804C8.97391 23.9954 8.62136 23.9953 8.22841 23.9953H8.19662C7.80367 23.9953 7.45112 23.9954 6.99125 23.8804C6.81789 23.837 6.68084 23.7045 6.63175 23.5327L6.29893 22.3678C5.93422 22.2184 5.53034 22.0336 5.16797 21.7376L4.01728 21.9842C3.83561 22.0231 3.64734 21.9581 3.5284 21.8154C3.01031 21.1937 2.55969 20.5304 2.33175 19.7327C2.28187 19.5581 2.33056 19.3702 2.45896 19.2418L3.24949 18.4512C3.23895 18.3907 3.232 18.3323 3.22707 18.2781C3.21249 18.1178 3.2125 17.9485 3.21251 17.8059L3.21251 17.7819C3.21249 17.571 3.21248 17.3755 3.25647 17.1464L2.45896 16.3489C2.31439 16.2043 2.2724 15.9863 2.35294 15.7984C2.35899 15.7842 2.36505 15.7701 2.37114 15.7559C2.65788 15.0865 2.9903 14.3104 3.55896 13.7418C3.68736 13.6134 3.87528 13.5647 4.04988 13.6146L5.21667 13.9479C5.54121 13.7223 5.9131 13.5034 6.29712 13.3292L6.63175 12.158C6.68084 11.9861 6.81789 11.8536 6.99125 11.8102C7.45112 11.6953 7.80367 11.6953 8.19661 11.6953ZM7.50941 12.7262L7.19328 13.8327C7.15078 13.9814 7.04183 14.1021 6.89821 14.1596C6.44657 14.3402 5.98461 14.6162 5.61251 14.8953C5.48738 14.9892 5.32555 15.019 5.17515 14.9761L4.07708 14.6623C3.81651 14.9927 3.61487 15.4065 3.40626 15.882L4.16607 16.6418C4.29998 16.7757 4.34675 16.9738 4.28686 17.1534C4.21445 17.3706 4.21251 17.4999 4.21251 17.7953C4.21251 17.9505 4.2129 18.0768 4.22296 18.1875C4.23332 18.3015 4.25084 18.3539 4.25973 18.3717C4.35598 18.5642 4.31825 18.7967 4.16607 18.9489L3.38461 19.7303C3.54488 20.1462 3.7914 20.5373 4.10806 20.9421L5.20775 20.7064C5.37359 20.6709 5.54614 20.7218 5.66607 20.8418C5.98223 21.1579 6.38404 21.3254 6.89821 21.5311C7.04183 21.5885 7.15078 21.7092 7.19328 21.858L7.50941 22.9644C7.72361 22.9945 7.92884 22.9953 8.21251 22.9953C8.49912 22.9953 8.70565 22.9945 8.92226 22.9635L9.23463 21.9483C9.27907 21.8038 9.38649 21.6872 9.52682 21.6311C9.97846 21.4504 10.4404 21.1744 10.8125 20.8953C10.9376 20.8015 11.0995 20.7716 11.2499 20.8146L12.3479 21.1283C12.6085 20.7979 12.8102 20.3841 13.0188 19.9087L12.259 19.1489C12.1652 19.0551 12.1125 18.9279 12.1125 18.7953C12.1125 18.5499 12.144 18.3648 12.1706 18.2184L12.1735 18.2021C12.1987 18.0638 12.2125 17.9879 12.2125 17.8953C12.2125 17.7401 12.2121 17.6138 12.2021 17.5031C12.1917 17.3891 12.1742 17.3367 12.1653 17.3189C12.0691 17.1264 12.1068 16.8939 12.259 16.7418L13.0404 15.9603C12.8826 15.5507 12.6411 15.1652 12.3314 14.7671L11.2499 15.0761C11.0753 15.126 10.8874 15.0773 10.759 14.9489C10.4428 14.6327 10.041 14.4652 9.52682 14.2596C9.38031 14.2009 9.27006 14.0766 9.2294 13.9241L8.90973 12.7254C8.69765 12.6961 8.49359 12.6953 8.21251 12.6953C7.92884 12.6953 7.72361 12.6961 7.50941 12.7262Z" fill="#508971"/>
</g>
<defs>
<filter id="filter0_d_6210_32023" x="7.11328" y="0.09375" width="15.6016" height="15.6016" filterUnits="userSpaceOnUse" color-interpolation-filters="sRGB">
<feFlood flood-opacity="0" result="BackgroundImageFix"/>
<feColorMatrix in="SourceAlpha" type="matrix" values="0 0 0 0 0 0 0 0 0 0 0 0 0 0 0 0 0 0 127 0" result="hardAlpha"/>
<feOffset dy="1"/>
<feGaussianBlur stdDeviation="1"/>
<feComposite in2="hardAlpha" operator="out"/>
<feColorMatrix type="matrix" values="0 0 0 0 0.0823529 0 0 0 0 0.545098 0 0 0 0 0.439216 0 0 0 0.4 0"/>
<feBlend mode="normal" in2="BackgroundImageFix" result="effect1_dropShadow_6210_32023"/>
<feBlend mode="normal" in="SourceGraphic" in2="effect1_dropShadow_6210_32023" result="shape"/>
</filter>
<filter id="filter1_d_6210_32023" x="13.5117" y="13.793" width="13.6016" height="11.3008" filterUnits="userSpaceOnUse" color-interpolation-filters="sRGB">
<feFlood flood-opacity="0" result="BackgroundImageFix"/>
<feColorMatrix in="SourceAlpha" type="matrix" values="0 0 0 0 0 0 0 0 0 0 0 0 0 0 0 0 0 0 127 0" result="hardAlpha"/>
<feOffset dy="1"/>
<feGaussianBlur stdDeviation="1"/>
<feComposite in2="hardAlpha" operator="out"/>
<feColorMatrix type="matrix" values="0 0 0 0 0.0823529 0 0 0 0 0.545098 0 0 0 0 0.439216 0 0 0 0.4 0"/>
<feBlend mode="normal" in2="BackgroundImageFix" result="effect1_dropShadow_6210_32023"/>
<feBlend mode="normal" in="SourceGraphic" in2="effect1_dropShadow_6210_32023" result="shape"/>
</filter>
<filter id="filter2_d_6210_32023" x="0.3125" y="10.6953" width="15.8008" height="16.3008" filterUnits="userSpaceOnUse" color-interpolation-filters="sRGB">
<feFlood flood-opacity="0" result="BackgroundImageFix"/>
<feColorMatrix in="SourceAlpha" type="matrix" values="0 0 0 0 0 0 0 0 0 0 0 0 0 0 0 0 0 0 127 0" result="hardAlpha"/>
<feOffset dy="1"/>
<feGaussianBlur stdDeviation="1"/>
<feComposite in2="hardAlpha" operator="out"/>
<feColorMatrix type="matrix" values="0 0 0 0 0.0823529 0 0 0 0 0.545098 0 0 0 0 0.439216 0 0 0 0.4 0"/>
<feBlend mode="normal" in2="BackgroundImageFix" result="effect1_dropShadow_6210_32023"/>
<feBlend mode="normal" in="SourceGraphic" in2="effect1_dropShadow_6210_32023" result="shape"/>
</filter>
</defs>
</svg>
