<svg width="37" height="28" viewBox="0 0 37 28" fill="none" xmlns="http://www.w3.org/2000/svg">
<g filter="url(#filter0_d_6210_32048)">
<path fill-rule="evenodd" clip-rule="evenodd" d="M10.0156 6.64453C8.63491 6.64453 7.51562 7.76382 7.51562 9.14453C7.51562 10.5252 8.63491 11.6445 10.0156 11.6445C11.3963 11.6445 12.5156 10.5252 12.5156 9.14453C12.5156 7.76382 11.3963 6.64453 10.0156 6.64453ZM6.51562 9.14453C6.51562 7.21154 8.08263 5.64453 10.0156 5.64453C11.9486 5.64453 13.5156 7.21154 13.5156 9.14453C13.5156 11.0775 11.9486 12.6445 10.0156 12.6445C8.08263 12.6445 6.51562 11.0775 6.51562 9.14453Z" fill="#508971"/>
</g>
<g filter="url(#filter1_d_6210_32048)">
<path fill-rule="evenodd" clip-rule="evenodd" d="M14.4636 4.8973C12.0589 2.49257 8.07548 2.49257 5.67074 4.8973C3.266 7.30204 3.266 11.2855 5.67074 13.6902L10.0055 18.025C10.0523 18.0066 10.1122 17.9854 10.1845 17.9693L14.4636 13.6902C16.8684 11.2855 16.8684 7.30204 14.4636 4.8973ZM4.96363 4.1902C7.7589 1.39493 12.3755 1.39493 15.1707 4.1902C17.966 6.98546 17.966 11.602 15.1707 14.3973L10.7707 18.7973C10.677 18.8911 10.5498 18.9437 10.4172 18.9437C10.4079 18.9437 10.4007 18.9439 10.3654 18.958C10.3574 18.9612 10.3513 18.9637 10.3432 18.967C10.3383 18.9691 10.3325 18.9715 10.325 18.9746C10.3091 18.9811 10.2859 18.9906 10.2602 18.9996C10.2106 19.0171 10.124 19.0438 10.0172 19.0438C10.0138 19.0438 10.0103 19.0438 10.0066 19.0438C9.89159 19.0441 9.61109 19.0448 9.36363 18.7973L4.96363 14.3973C2.16837 11.602 2.16837 6.98546 4.96363 4.1902Z" fill="#508971"/>
</g>
<g filter="url(#filter2_d_6210_32048)">
<path fill-rule="evenodd" clip-rule="evenodd" d="M22.3927 16.1929C22.9295 14.5934 24.3423 13.543 26.0156 13.543C26.2918 13.543 26.5156 13.3191 26.5156 13.043C26.5156 12.7668 26.2918 12.543 26.0156 12.543C23.8918 12.543 22.1066 13.8889 21.4413 15.8849C21.4394 15.8905 21.4376 15.8962 21.4359 15.9019L20.9359 17.6019L20.9359 17.6019L20.9339 17.6091C20.4991 19.1743 19.0107 20.243 17.3156 20.243H15.5156C15.2395 20.243 15.0156 20.4668 15.0156 20.743C15.0156 21.0191 15.2395 21.243 15.5156 21.243H17.3156C19.4192 21.243 21.3298 19.9133 21.8963 17.8805L22.3927 16.1929Z" fill="#508971"/>
</g>
<g filter="url(#filter3_d_6210_32048)">
<path fill-rule="evenodd" clip-rule="evenodd" d="M14.4636 4.8973C12.0589 2.49257 8.07548 2.49257 5.67074 4.8973C3.266 7.30204 3.266 11.2855 5.67074 13.6902L10.0055 18.025C10.0523 18.0066 10.1122 17.9854 10.1845 17.9693L14.4636 13.6902C16.8684 11.2855 16.8684 7.30204 14.4636 4.8973ZM4.96363 4.1902C7.7589 1.39493 12.3755 1.39493 15.1707 4.1902C17.966 6.98546 17.966 11.602 15.1707 14.3973L10.7707 18.7973C10.677 18.8911 10.5498 18.9437 10.4172 18.9437C10.4079 18.9437 10.4007 18.9439 10.3654 18.958C10.3574 18.9612 10.3513 18.9637 10.3432 18.967C10.3383 18.9691 10.3325 18.9715 10.325 18.9746C10.3091 18.9811 10.2859 18.9906 10.2602 18.9996C10.2106 19.0171 10.124 19.0438 10.0172 19.0438C10.0138 19.0438 10.0103 19.0438 10.0066 19.0438C9.89159 19.0441 9.61109 19.0448 9.36363 18.7973L4.96363 14.3973C2.16837 11.602 2.16837 6.98546 4.96363 4.1902Z" fill="#508971"/>
</g>
<g filter="url(#filter4_d_6210_32048)">
<path fill-rule="evenodd" clip-rule="evenodd" d="M6.77081 18.4378C6.88508 18.6891 6.77392 18.9856 6.52253 19.0998C5.47457 19.5762 5.01562 20.1494 5.01562 20.7447C5.01562 21.2029 5.41634 21.7741 6.36867 22.2622C7.28702 22.7328 8.58147 23.0447 10.0156 23.0447C11.4498 23.0447 12.7442 22.7328 13.6626 22.2622C14.6149 21.7741 15.0156 21.2029 15.0156 20.7447C15.0156 20.2389 14.5414 19.5692 13.5087 19.0998C13.2573 18.9856 13.1462 18.6891 13.2604 18.4378C13.3747 18.1864 13.6711 18.0752 13.9225 18.1895C15.0899 18.7201 16.0156 19.6504 16.0156 20.7447C16.0156 21.7864 15.1663 22.6152 14.1187 23.1521C13.037 23.7065 11.5815 24.0447 10.0156 24.0447C8.44978 24.0447 6.99423 23.7065 5.91258 23.1521C4.86491 22.6152 4.01562 21.7864 4.01562 20.7447C4.01562 19.5399 4.95668 18.7131 6.10872 18.1895C6.36011 18.0752 6.65654 18.1864 6.77081 18.4378Z" fill="#508971"/>
</g>
<g filter="url(#filter5_d_6210_32048)">
<path fill-rule="evenodd" clip-rule="evenodd" d="M32.4652 3.09652C31.0605 1.69178 28.677 1.69178 27.2723 3.09652C25.8676 4.50126 25.8676 6.88468 27.2723 8.28942L29.8687 10.8859L32.4652 8.28942C33.8699 6.88468 33.8699 4.50126 32.4652 3.09652ZM26.5652 2.38942C28.3605 0.594153 31.377 0.594153 33.1723 2.38942C34.9676 4.18468 34.9676 7.20126 33.1723 8.99652L30.4577 11.7111C30.4465 11.7339 30.4337 11.7563 30.4192 11.7781C30.3512 11.8801 30.2642 11.9418 30.1924 11.9777C30.1225 12.0126 30.0587 12.0276 30.0166 12.0346C29.9943 12.0383 29.9747 12.0404 29.9587 12.0415C29.9506 12.0421 29.9432 12.0424 29.9365 12.0427L29.9271 12.0429L29.9228 12.043L29.9207 12.043L29.9197 12.043C29.9195 12.043 29.9188 12.043 29.9187 11.543L29.9197 12.043C29.9189 12.043 29.9165 12.043 29.9145 12.0431C29.8859 12.044 29.7377 12.0489 29.5951 11.9777C29.5238 11.942 29.4724 11.8983 29.4436 11.8724C29.4179 11.8492 29.3905 11.8219 29.3697 11.8011L26.5652 8.99652C24.7699 7.20126 24.7699 4.18468 26.5652 2.38942Z" fill="#508971"/>
</g>
<g filter="url(#filter6_d_6210_32048)">
<path fill-rule="evenodd" clip-rule="evenodd" d="M32.4652 3.09652C31.0605 1.69178 28.677 1.69178 27.2723 3.09652C25.8676 4.50126 25.8676 6.88468 27.2723 8.28942L29.8687 10.8859L32.4652 8.28942C33.8699 6.88468 33.8699 4.50126 32.4652 3.09652ZM26.5652 2.38942C28.3605 0.594153 31.377 0.594153 33.1723 2.38942C34.9676 4.18468 34.9676 7.20126 33.1723 8.99652L30.4577 11.7111C30.4465 11.7339 30.4337 11.7563 30.4192 11.7781C30.3512 11.8801 30.2642 11.9418 30.1924 11.9777C30.1225 12.0126 30.0587 12.0276 30.0166 12.0346C29.9943 12.0383 29.9747 12.0404 29.9587 12.0415C29.9506 12.0421 29.9432 12.0424 29.9365 12.0427L29.9271 12.0429L29.9228 12.043L29.9207 12.043L29.9197 12.043C29.9195 12.043 29.9188 12.043 29.9187 11.543L29.9197 12.043C29.9189 12.043 29.9165 12.043 29.9145 12.0431C29.8859 12.044 29.7377 12.0489 29.5951 11.9777C29.5238 11.942 29.4724 11.8983 29.4436 11.8724C29.4179 11.8492 29.3905 11.8219 29.3697 11.8011L26.5652 8.99652C24.7699 7.20126 24.7699 4.18468 26.5652 2.38942Z" fill="#508971"/>
</g>
<g filter="url(#filter7_d_6210_32048)">
<path fill-rule="evenodd" clip-rule="evenodd" d="M27.8652 11.6203C27.9887 11.8672 27.8886 12.1676 27.6416 12.2911C27.0802 12.5718 26.918 12.8449 26.918 13.0439C26.918 13.2707 27.0945 13.5878 27.6398 13.8772C28.1656 14.1562 28.9315 14.3439 29.818 14.3439C30.7045 14.3439 31.4703 14.1562 31.9961 13.8772C32.5414 13.5878 32.718 13.2707 32.718 13.0439C32.718 12.8449 32.5557 12.5718 31.9944 12.2911C31.7474 12.1676 31.6473 11.8672 31.7708 11.6203C31.8942 11.3733 32.1946 11.2732 32.4416 11.3966C33.0802 11.716 33.718 12.2428 33.718 13.0439C33.718 13.817 33.1445 14.3999 32.4648 14.7605C31.7656 15.1316 30.8315 15.3439 29.818 15.3439C28.8045 15.3439 27.8703 15.1316 27.1711 14.7605C26.4914 14.3999 25.918 13.817 25.918 13.0439C25.918 12.2428 26.5557 11.716 27.1944 11.3966C27.4414 11.2732 27.7417 11.3733 27.8652 11.6203Z" fill="#508971"/>
</g>
<defs>
<filter id="filter0_d_6210_32048" x="4.51562" y="4.64453" width="11" height="11" filterUnits="userSpaceOnUse" color-interpolation-filters="sRGB">
<feFlood flood-opacity="0" result="BackgroundImageFix"/>
<feColorMatrix in="SourceAlpha" type="matrix" values="0 0 0 0 0 0 0 0 0 0 0 0 0 0 0 0 0 0 127 0" result="hardAlpha"/>
<feOffset dy="1"/>
<feGaussianBlur stdDeviation="1"/>
<feComposite in2="hardAlpha" operator="out"/>
<feColorMatrix type="matrix" values="0 0 0 0 0.0823529 0 0 0 0 0.545098 0 0 0 0 0.439216 0 0 0 0.4 0"/>
<feBlend mode="normal" in2="BackgroundImageFix" result="effect1_dropShadow_6210_32048"/>
<feBlend mode="normal" in="SourceGraphic" in2="effect1_dropShadow_6210_32048" result="shape"/>
</filter>
<filter id="filter1_d_6210_32048" x="0.867188" y="1.09375" width="18.3984" height="20.9492" filterUnits="userSpaceOnUse" color-interpolation-filters="sRGB">
<feFlood flood-opacity="0" result="BackgroundImageFix"/>
<feColorMatrix in="SourceAlpha" type="matrix" values="0 0 0 0 0 0 0 0 0 0 0 0 0 0 0 0 0 0 127 0" result="hardAlpha"/>
<feOffset dy="1"/>
<feGaussianBlur stdDeviation="1"/>
<feComposite in2="hardAlpha" operator="out"/>
<feColorMatrix type="matrix" values="0 0 0 0 0.0823529 0 0 0 0 0.545098 0 0 0 0 0.439216 0 0 0 0.4 0"/>
<feBlend mode="normal" in2="BackgroundImageFix" result="effect1_dropShadow_6210_32048"/>
<feBlend mode="normal" in="SourceGraphic" in2="effect1_dropShadow_6210_32048" result="shape"/>
</filter>
<filter id="filter2_d_6210_32048" x="13.0156" y="11.543" width="15.5" height="12.6992" filterUnits="userSpaceOnUse" color-interpolation-filters="sRGB">
<feFlood flood-opacity="0" result="BackgroundImageFix"/>
<feColorMatrix in="SourceAlpha" type="matrix" values="0 0 0 0 0 0 0 0 0 0 0 0 0 0 0 0 0 0 127 0" result="hardAlpha"/>
<feOffset dy="1"/>
<feGaussianBlur stdDeviation="1"/>
<feComposite in2="hardAlpha" operator="out"/>
<feColorMatrix type="matrix" values="0 0 0 0 0.0823529 0 0 0 0 0.545098 0 0 0 0 0.439216 0 0 0 0.4 0"/>
<feBlend mode="normal" in2="BackgroundImageFix" result="effect1_dropShadow_6210_32048"/>
<feBlend mode="normal" in="SourceGraphic" in2="effect1_dropShadow_6210_32048" result="shape"/>
</filter>
<filter id="filter3_d_6210_32048" x="0.867188" y="1.09375" width="18.3984" height="20.9492" filterUnits="userSpaceOnUse" color-interpolation-filters="sRGB">
<feFlood flood-opacity="0" result="BackgroundImageFix"/>
<feColorMatrix in="SourceAlpha" type="matrix" values="0 0 0 0 0 0 0 0 0 0 0 0 0 0 0 0 0 0 127 0" result="hardAlpha"/>
<feOffset dy="1"/>
<feGaussianBlur stdDeviation="1"/>
<feComposite in2="hardAlpha" operator="out"/>
<feColorMatrix type="matrix" values="0 0 0 0 0.0823529 0 0 0 0 0.545098 0 0 0 0 0.439216 0 0 0 0.4 0"/>
<feBlend mode="normal" in2="BackgroundImageFix" result="effect1_dropShadow_6210_32048"/>
<feBlend mode="normal" in="SourceGraphic" in2="effect1_dropShadow_6210_32048" result="shape"/>
</filter>
<filter id="filter4_d_6210_32048" x="2.01562" y="17.1445" width="16" height="9.89844" filterUnits="userSpaceOnUse" color-interpolation-filters="sRGB">
<feFlood flood-opacity="0" result="BackgroundImageFix"/>
<feColorMatrix in="SourceAlpha" type="matrix" values="0 0 0 0 0 0 0 0 0 0 0 0 0 0 0 0 0 0 127 0" result="hardAlpha"/>
<feOffset dy="1"/>
<feGaussianBlur stdDeviation="1"/>
<feComposite in2="hardAlpha" operator="out"/>
<feColorMatrix type="matrix" values="0 0 0 0 0.0823529 0 0 0 0 0.545098 0 0 0 0 0.439216 0 0 0 0.4 0"/>
<feBlend mode="normal" in2="BackgroundImageFix" result="effect1_dropShadow_6210_32048"/>
<feBlend mode="normal" in="SourceGraphic" in2="effect1_dropShadow_6210_32048" result="shape"/>
</filter>
<filter id="filter5_d_6210_32048" x="23.2188" y="0.0429688" width="13.3008" height="15" filterUnits="userSpaceOnUse" color-interpolation-filters="sRGB">
<feFlood flood-opacity="0" result="BackgroundImageFix"/>
<feColorMatrix in="SourceAlpha" type="matrix" values="0 0 0 0 0 0 0 0 0 0 0 0 0 0 0 0 0 0 127 0" result="hardAlpha"/>
<feOffset dy="1"/>
<feGaussianBlur stdDeviation="1"/>
<feComposite in2="hardAlpha" operator="out"/>
<feColorMatrix type="matrix" values="0 0 0 0 0.0823529 0 0 0 0 0.545098 0 0 0 0 0.439216 0 0 0 0.4 0"/>
<feBlend mode="normal" in2="BackgroundImageFix" result="effect1_dropShadow_6210_32048"/>
<feBlend mode="normal" in="SourceGraphic" in2="effect1_dropShadow_6210_32048" result="shape"/>
</filter>
<filter id="filter6_d_6210_32048" x="23.2188" y="0.0429688" width="13.3008" height="15" filterUnits="userSpaceOnUse" color-interpolation-filters="sRGB">
<feFlood flood-opacity="0" result="BackgroundImageFix"/>
<feColorMatrix in="SourceAlpha" type="matrix" values="0 0 0 0 0 0 0 0 0 0 0 0 0 0 0 0 0 0 127 0" result="hardAlpha"/>
<feOffset dy="1"/>
<feGaussianBlur stdDeviation="1"/>
<feComposite in2="hardAlpha" operator="out"/>
<feColorMatrix type="matrix" values="0 0 0 0 0.0823529 0 0 0 0 0.545098 0 0 0 0 0.439216 0 0 0 0.4 0"/>
<feBlend mode="normal" in2="BackgroundImageFix" result="effect1_dropShadow_6210_32048"/>
<feBlend mode="normal" in="SourceGraphic" in2="effect1_dropShadow_6210_32048" result="shape"/>
</filter>
<filter id="filter7_d_6210_32048" x="23.918" y="10.3438" width="11.8008" height="8" filterUnits="userSpaceOnUse" color-interpolation-filters="sRGB">
<feFlood flood-opacity="0" result="BackgroundImageFix"/>
<feColorMatrix in="SourceAlpha" type="matrix" values="0 0 0 0 0 0 0 0 0 0 0 0 0 0 0 0 0 0 127 0" result="hardAlpha"/>
<feOffset dy="1"/>
<feGaussianBlur stdDeviation="1"/>
<feComposite in2="hardAlpha" operator="out"/>
<feColorMatrix type="matrix" values="0 0 0 0 0.0823529 0 0 0 0 0.545098 0 0 0 0 0.439216 0 0 0 0.4 0"/>
<feBlend mode="normal" in2="BackgroundImageFix" result="effect1_dropShadow_6210_32048"/>
<feBlend mode="normal" in="SourceGraphic" in2="effect1_dropShadow_6210_32048" result="shape"/>
</filter>
</defs>
</svg>
