<svg width="35" height="26" viewBox="0 0 35 26" fill="none" xmlns="http://www.w3.org/2000/svg">
<g filter="url(#filter0_d_6210_32035)">
<path fill-rule="evenodd" clip-rule="evenodd" d="M13.6562 18.7617C13.6562 18.4856 13.8801 18.2617 14.1562 18.2617H22.1562C22.4324 18.2617 22.6562 18.4856 22.6562 18.7617C22.6562 19.0379 22.4324 19.2617 22.1562 19.2617H14.1562C13.8801 19.2617 13.6562 19.0379 13.6562 18.7617Z" fill="#508971"/>
</g>
<g filter="url(#filter1_d_6210_32035)">
<path fill-rule="evenodd" clip-rule="evenodd" d="M8.60747 2.73967C8.96423 2.02617 9.70999 1.36328 10.6547 1.36328H20.9547C21.8139 1.36328 22.7495 1.85385 23.0311 2.81107L25.2291 9.10515C25.3723 9.53476 25.7285 9.80814 26.0527 9.87299L26.0692 9.87657L31.145 11.0709C32.2283 11.2212 32.8547 12.174 32.8547 13.1633V17.0633C32.8547 18.2394 31.8308 19.2633 30.6547 19.2633H28.9547C28.6785 19.2633 28.4547 19.0394 28.4547 18.7633C28.4547 18.4871 28.6785 18.2633 28.9547 18.2633H30.6547C31.2785 18.2633 31.8547 17.6871 31.8547 17.0633V13.1633C31.8547 12.5611 31.492 12.1218 30.9927 12.0594C30.975 12.0572 30.9575 12.0541 30.9402 12.05L25.8477 10.8518C25.1763 10.714 24.538 10.19 24.2815 9.42494L22.0826 3.12812C22.0795 3.11905 22.0766 3.10988 22.0739 3.10064C21.9502 2.66764 21.4911 2.36328 20.9547 2.36328H10.6547C10.2084 2.36328 9.76311 2.6872 9.51657 3.15821L7.3283 9.62358C7.32096 9.64526 7.31214 9.66641 7.3019 9.68689C7.0804 10.1299 6.71771 10.6408 6.17829 10.9105L4.17829 11.9105C3.77114 12.1141 3.55469 12.5249 3.55469 12.9633V17.1633C3.55469 17.7871 4.13083 18.3633 4.75469 18.3633H7.35469C7.63083 18.3633 7.85469 18.5871 7.85469 18.8633C7.85469 19.1394 7.63083 19.3633 7.35469 19.3633H4.75469C3.57855 19.3633 2.55469 18.3394 2.55469 17.1633V12.9633C2.55469 12.2016 2.93823 11.4125 3.73108 11.0161L5.73108 10.0161C5.98447 9.88938 6.21585 9.61252 6.39255 9.26911L8.58108 2.80298C8.58842 2.7813 8.59724 2.76015 8.60747 2.73967Z" fill="#508971"/>
</g>
<g filter="url(#filter2_d_6210_32035)">
<path fill-rule="evenodd" clip-rule="evenodd" d="M18.3555 3.46484C18.6316 3.46484 18.8555 3.6887 18.8555 3.96484V8.66484C18.8555 9.1887 19.3316 9.66484 19.8555 9.66484H25.0555C25.3316 9.66484 25.5555 9.8887 25.5555 10.1648C25.5555 10.441 25.3316 10.6648 25.0555 10.6648H19.8555C18.7793 10.6648 17.8555 9.74099 17.8555 8.66484V3.96484C17.8555 3.6887 18.0793 3.46484 18.3555 3.46484Z" fill="#508971"/>
</g>
<g filter="url(#filter3_d_6210_32035)">
<path fill-rule="evenodd" clip-rule="evenodd" d="M25.5562 15.5625C23.9546 15.5625 22.6562 16.8609 22.6562 18.4625C22.6562 20.0641 23.9546 21.3625 25.5562 21.3625C27.1579 21.3625 28.4562 20.0641 28.4562 18.4625C28.4562 16.8609 27.1579 15.5625 25.5562 15.5625ZM21.6562 18.4625C21.6562 16.3086 23.4023 14.5625 25.5562 14.5625C27.7102 14.5625 29.4562 16.3086 29.4562 18.4625C29.4562 20.6164 27.7102 22.3625 25.5562 22.3625C23.4023 22.3625 21.6562 20.6164 21.6562 18.4625Z" fill="#508971"/>
</g>
<g filter="url(#filter4_d_6210_32035)">
<path fill-rule="evenodd" clip-rule="evenodd" d="M10.7555 15.5625C9.15384 15.5625 7.85547 16.8609 7.85547 18.4625C7.85547 20.0641 9.15384 21.3625 10.7555 21.3625C12.3571 21.3625 13.6555 20.0641 13.6555 18.4625C13.6555 16.8609 12.3571 15.5625 10.7555 15.5625ZM6.85547 18.4625C6.85547 16.3086 8.60156 14.5625 10.7555 14.5625C12.9094 14.5625 14.6555 16.3086 14.6555 18.4625C14.6555 20.6164 12.9094 22.3625 10.7555 22.3625C8.60156 22.3625 6.85547 20.6164 6.85547 18.4625Z" fill="#508971"/>
</g>
<defs>
<filter id="filter0_d_6210_32035" x="11.6562" y="17.2617" width="13" height="5" filterUnits="userSpaceOnUse" color-interpolation-filters="sRGB">
<feFlood flood-opacity="0" result="BackgroundImageFix"/>
<feColorMatrix in="SourceAlpha" type="matrix" values="0 0 0 0 0 0 0 0 0 0 0 0 0 0 0 0 0 0 127 0" result="hardAlpha"/>
<feOffset dy="1"/>
<feGaussianBlur stdDeviation="1"/>
<feComposite in2="hardAlpha" operator="out"/>
<feColorMatrix type="matrix" values="0 0 0 0 0.0823529 0 0 0 0 0.545098 0 0 0 0 0.439216 0 0 0 0.4 0"/>
<feBlend mode="normal" in2="BackgroundImageFix" result="effect1_dropShadow_6210_32035"/>
<feBlend mode="normal" in="SourceGraphic" in2="effect1_dropShadow_6210_32035" result="shape"/>
</filter>
<filter id="filter1_d_6210_32035" x="0.554688" y="0.363281" width="34.3008" height="22" filterUnits="userSpaceOnUse" color-interpolation-filters="sRGB">
<feFlood flood-opacity="0" result="BackgroundImageFix"/>
<feColorMatrix in="SourceAlpha" type="matrix" values="0 0 0 0 0 0 0 0 0 0 0 0 0 0 0 0 0 0 127 0" result="hardAlpha"/>
<feOffset dy="1"/>
<feGaussianBlur stdDeviation="1"/>
<feComposite in2="hardAlpha" operator="out"/>
<feColorMatrix type="matrix" values="0 0 0 0 0.0823529 0 0 0 0 0.545098 0 0 0 0 0.439216 0 0 0 0.4 0"/>
<feBlend mode="normal" in2="BackgroundImageFix" result="effect1_dropShadow_6210_32035"/>
<feBlend mode="normal" in="SourceGraphic" in2="effect1_dropShadow_6210_32035" result="shape"/>
</filter>
<filter id="filter2_d_6210_32035" x="15.8555" y="2.46484" width="11.6992" height="11.1992" filterUnits="userSpaceOnUse" color-interpolation-filters="sRGB">
<feFlood flood-opacity="0" result="BackgroundImageFix"/>
<feColorMatrix in="SourceAlpha" type="matrix" values="0 0 0 0 0 0 0 0 0 0 0 0 0 0 0 0 0 0 127 0" result="hardAlpha"/>
<feOffset dy="1"/>
<feGaussianBlur stdDeviation="1"/>
<feComposite in2="hardAlpha" operator="out"/>
<feColorMatrix type="matrix" values="0 0 0 0 0.0823529 0 0 0 0 0.545098 0 0 0 0 0.439216 0 0 0 0.4 0"/>
<feBlend mode="normal" in2="BackgroundImageFix" result="effect1_dropShadow_6210_32035"/>
<feBlend mode="normal" in="SourceGraphic" in2="effect1_dropShadow_6210_32035" result="shape"/>
</filter>
<filter id="filter3_d_6210_32035" x="19.6562" y="13.5625" width="11.8008" height="11.8008" filterUnits="userSpaceOnUse" color-interpolation-filters="sRGB">
<feFlood flood-opacity="0" result="BackgroundImageFix"/>
<feColorMatrix in="SourceAlpha" type="matrix" values="0 0 0 0 0 0 0 0 0 0 0 0 0 0 0 0 0 0 127 0" result="hardAlpha"/>
<feOffset dy="1"/>
<feGaussianBlur stdDeviation="1"/>
<feComposite in2="hardAlpha" operator="out"/>
<feColorMatrix type="matrix" values="0 0 0 0 0.0823529 0 0 0 0 0.545098 0 0 0 0 0.439216 0 0 0 0.4 0"/>
<feBlend mode="normal" in2="BackgroundImageFix" result="effect1_dropShadow_6210_32035"/>
<feBlend mode="normal" in="SourceGraphic" in2="effect1_dropShadow_6210_32035" result="shape"/>
</filter>
<filter id="filter4_d_6210_32035" x="4.85547" y="13.5625" width="11.8008" height="11.8008" filterUnits="userSpaceOnUse" color-interpolation-filters="sRGB">
<feFlood flood-opacity="0" result="BackgroundImageFix"/>
<feColorMatrix in="SourceAlpha" type="matrix" values="0 0 0 0 0 0 0 0 0 0 0 0 0 0 0 0 0 0 127 0" result="hardAlpha"/>
<feOffset dy="1"/>
<feGaussianBlur stdDeviation="1"/>
<feComposite in2="hardAlpha" operator="out"/>
<feColorMatrix type="matrix" values="0 0 0 0 0.0823529 0 0 0 0 0.545098 0 0 0 0 0.439216 0 0 0 0.4 0"/>
<feBlend mode="normal" in2="BackgroundImageFix" result="effect1_dropShadow_6210_32035"/>
<feBlend mode="normal" in="SourceGraphic" in2="effect1_dropShadow_6210_32035" result="shape"/>
</filter>
</defs>
</svg>
