<svg width="196" height="233" viewBox="0 0 196 233" fill="none" xmlns="http://www.w3.org/2000/svg">
<path fill-rule="evenodd" clip-rule="evenodd" d="M152.276 89.331C151.252 94.6011 150.54 96.6814 149.116 98.4843C145.155 104.309 138.792 104.309 133.807 104.864C112.579 106.066 68.966 108.146 54.903 104.217C50.4972 103.292 44.7118 101.073 43.6882 87.8517C41.6856 68.297 41.374 47.078 42.6646 26.3675C43.5992 6.62788 48.5836 2.7909 64.5157 1.4965C90.016 0.34078 103.857 -0.0290472 132.472 1.58896C143.108 2.32862 149.25 4.96365 151.208 14.8104C153.122 25.3505 153.389 40.2362 153.745 53.134C153.878 66.6327 153.344 78.4211 152.276 89.331ZM92.6417 29.0488C66.7854 32.2848 60.7329 27.6619 52.9894 36.0293C52.1883 27.1997 52.1883 21.1899 52.9448 16.9831C53.7459 12.2216 55.4816 9.91013 57.7957 8.56949C64.1152 5.5184 67.5419 8.06097 72.6598 11.8517C80.4033 17.3529 90.2386 25.7666 92.6417 29.0488ZM54.5915 50.5452C54.28 50.5452 59.6204 49.8979 65.4948 50.3602C73.7724 50.5452 85.2097 51.0999 80.7593 60.3919C93.2202 53.2726 103.411 62.9807 106.838 67.2799C108.04 68.3432 111.378 74.769 111.867 81.9344C111.778 91.9198 108.262 100.38 97.0921 101.998C91.8852 102.46 87.2123 102.368 83.207 101.72C78.0447 101.304 73.6834 98.4843 70.0341 94.2775C67.4084 90.5792 65.1388 86.1875 63.2696 81.5646C58.4633 68.5743 55.4371 56.5087 54.5915 50.5452ZM88.0134 97.0975C89.571 97.005 91.2176 96.2653 91.7516 95.8955C92.9977 95.0634 92.6417 94.6011 91.9742 94.5549C91.3956 94.5087 90.4166 94.6936 89.4375 94.8785C88.4584 95.0172 87.5683 95.1096 87.3013 94.9709C86.2777 94.9247 86.4558 94.4162 86.9898 94.0001C88.4139 93.0293 87.9689 92.2897 86.8118 92.7982C85.7882 93.0293 84.0526 94.5087 81.6939 94.0464C79.6913 93.3067 78.4007 91.5963 78.8902 89.8858C84.8091 94.2313 84.0526 87.0658 92.1967 89.4235C95.1339 90.3018 96.558 89.6546 98.7387 87.6668C102.744 83.5987 101.765 75.0001 100.875 72.55C98.9612 67.8347 95.1339 64.6911 93.7543 64.0439C91.2176 62.5184 86.4112 61.0391 83.9636 63.5354C80.3588 66.9563 87.6574 76.3408 94.6444 71.3481C91.9297 76.4332 86.8118 71.8566 82.406 78.2362C81.694 79.1607 81.0264 80.5476 81.2044 81.241C83.6521 80.224 83.8301 82.6741 86.3222 80.6863C84.2306 84.7544 88.7254 83.4138 87.6129 87.0196C87.5684 85.2629 86.3223 84.9855 85.6102 85.1242C83.7856 81.6108 79.8248 82.7203 78.3117 84.4308C79.9583 79.1145 82.7175 77.0804 82.6285 73.7057C82.584 72.5038 82.2725 71.2556 81.9609 70.0999C80.8484 66.3091 81.1154 64.1364 83.4296 61.825C87.7019 58.6352 94.1993 60.7155 98.6052 64.6911C103.233 68.9442 105.637 74.4454 105.637 80.7787C105.459 87.8979 102.388 96.8201 94.5998 97.7447C91.7516 98.022 89.126 97.606 88.0134 97.0975ZM110.532 101.119C117.519 100.981 126.954 97.6984 130.692 89.331C138.079 74.2605 142.307 54.7982 143.687 38.9417C144.399 31.2678 146.357 14.6255 139.103 8.89309C135.587 6.11937 131.849 5.88823 126.687 8.1072C120.011 11.7593 111.823 20.2191 100.163 28.8639C95.1339 32.3773 90.4166 35.5671 86.5893 37.6936C83.2961 39.3116 80.0473 40.606 77.0656 41.4381C82.3615 37.8323 87.3458 34.0877 86.0107 33.0707C74.3509 35.752 63.4921 31.9612 56.5941 37.8323C56.4606 38.0172 56.5051 38.2021 56.6386 38.3408C58.9973 38.2483 61.979 38.1559 63.2696 38.3408C63.7147 38.387 63.7146 38.4795 63.3141 38.7568C61.979 39.9125 59.8874 41.7617 58.9528 42.0853C58.5968 42.0853 58.3743 41.9004 58.1072 41.7617C57.1282 41.207 56.3271 40.1899 55.3925 39.7276C54.458 39.7276 52.7668 40.4211 51.0757 41.623C50.2747 42.2702 49.8742 43.1948 50.1412 44.2118C50.4082 45.2289 50.9867 46.5695 52.0548 48.0488C52.2773 46.2921 54.1465 46.1996 55.2146 46.061C62.4686 45.876 71.7698 46.2459 81.0264 47.8177C97.1811 50.4065 110.398 60.6692 114.76 73.1972C118.098 81.9807 117.296 91.8736 110.532 101.119ZM116.184 24.5184C104.435 37.6473 110.933 43.1948 116.095 53.9661C119.032 60.7155 121.257 68.0658 120.189 79.3919C118.098 63.6741 109.597 50.4065 105.147 44.5354C100.608 37.8323 99.0502 37.2313 116.184 24.5184Z" fill="white"/>
<path fill-rule="evenodd" clip-rule="evenodd" d="M39.0449 111.5C40.1215 111.591 41.6914 111.683 43.8446 111.866C45.9977 111.683 47.5678 111.591 48.6443 111.5V152.5C46.9398 152.271 45.2352 152.134 43.5754 152.134C42.14 152.134 40.6149 152.271 39 152.5V111.5H39.0449Z" fill="white"/>
<path fill-rule="evenodd" clip-rule="evenodd" d="M52.5078 152.5C53.6677 146.467 54.8276 139.793 55.9876 132.617C57.1475 125.395 58.2182 118.356 59.1996 111.5C59.6011 111.546 60.0919 111.637 60.6272 111.683C61.1626 111.774 61.5641 111.82 61.8764 111.866C63.1701 111.683 64.0624 111.546 64.5085 111.5C67.8098 118.128 72.7617 127.498 79.3643 139.565C80.7027 137.142 82.0857 134.72 83.424 132.297C84.7624 129.875 85.9669 127.772 86.9484 125.898C87.9744 124.024 89.179 121.784 90.6066 119.042C92.0342 116.345 93.3279 113.831 94.5324 111.5C94.9785 111.546 95.8708 111.683 97.2984 111.866C97.9676 111.774 98.8598 111.683 99.9305 111.5C100.466 115.934 100.912 119.545 101.269 122.424C101.626 125.258 102.027 128.321 102.429 131.566C102.875 134.811 103.366 138.148 103.856 141.53C104.347 144.867 104.882 148.569 105.552 152.5C103.812 152.271 102.072 152.134 100.243 152.134C98.4583 152.134 96.7184 152.271 94.934 152.5C94.8447 150.26 94.6663 148.021 94.4878 145.69C94.2647 143.358 94.0863 141.393 93.9078 139.793C93.7294 138.148 93.4171 135.771 93.1048 132.708C92.7479 129.6 92.4356 126.904 92.168 124.664C86.9483 134.308 82.1749 143.496 77.8475 152.134H76.5537H75.4384C74.6354 150.535 73.3863 148.112 71.691 144.912C69.9958 141.667 68.702 139.199 67.8098 137.554C66.9176 135.862 65.8023 133.76 64.4639 131.2C63.0809 128.64 62.0548 126.629 61.341 125.258C60.9395 127.909 60.4934 131.017 60.0473 134.674C59.6011 138.331 59.2889 141.667 59.0212 144.73C58.7535 147.838 58.6197 150.397 58.5751 152.5C57.9505 152.409 57.4597 152.363 57.1029 152.317C56.7013 152.271 56.2107 152.226 55.5415 152.134C54.1585 152.317 53.1324 152.454 52.5078 152.5Z" fill="white"/>
<path fill-rule="evenodd" clip-rule="evenodd" d="M106.367 143.279H107.632C108.112 145.213 109.072 146.732 110.511 147.929C111.951 149.126 113.914 149.725 116.401 149.817C118.451 149.817 120.196 149.264 121.592 148.113C122.988 146.963 123.686 145.489 123.686 143.648C123.686 141.99 123.075 140.517 121.81 139.32C120.545 138.077 118.451 136.88 115.397 135.683C113.041 134.716 111.122 133.657 109.595 132.598C108.112 131.54 106.934 130.204 106.149 128.685C105.32 127.166 104.927 125.324 104.927 123.161C104.927 120.905 105.451 118.787 106.498 116.853C107.545 114.92 109.159 113.4 111.427 112.249C113.652 111.098 116.401 110.5 119.672 110.5C121.505 110.5 123.337 110.776 125.169 111.283C127.002 111.789 128.441 112.48 129.488 113.308C129.183 114.229 128.834 115.196 128.485 116.255C128.136 117.268 127.787 118.327 127.438 119.293H126.522C126.042 117.866 125.169 116.623 123.948 115.656C122.726 114.643 121.156 114.137 119.323 114.137C114.656 114.137 112.343 116.117 112.343 120.122C112.343 122.424 114.176 124.404 117.884 126.107L122.552 128.317C126.042 129.928 128.398 131.77 129.663 133.842C130.928 135.913 131.582 138.169 131.582 140.609C131.495 142.681 131.015 144.522 130.055 146.134C129.139 147.745 127.83 149.08 126.216 150.185C124.602 151.29 122.77 152.119 120.763 152.671C118.756 153.224 116.75 153.5 114.656 153.5C110.686 153.408 107.327 152.533 104.578 150.922C105.363 148.252 106.018 145.673 106.367 143.279Z" fill="white"/>
<path fill-rule="evenodd" clip-rule="evenodd" d="M130.632 143.279H131.938C132.478 145.213 133.424 146.732 134.911 147.929C136.352 149.126 138.378 149.725 140.991 149.817C143.107 149.817 144.909 149.264 146.305 148.113C147.746 146.963 148.467 145.489 148.467 143.648C148.467 141.99 147.836 140.517 146.53 139.32C145.224 138.077 143.062 136.88 139.91 135.683C137.478 134.716 135.496 133.657 133.965 132.598C132.433 131.54 131.217 130.204 130.362 128.685C129.506 127.166 129.101 125.324 129.101 123.161C129.101 120.905 129.641 118.787 130.722 116.853C131.848 114.92 133.514 113.4 135.811 112.249C138.108 111.098 140.991 110.5 144.368 110.5C146.26 110.5 148.152 110.776 150.043 111.283C151.935 111.789 153.421 112.48 154.502 113.308C154.187 114.229 153.826 115.196 153.466 116.255C153.106 117.268 152.746 118.327 152.43 119.293H151.439C150.944 117.866 150.043 116.623 148.782 115.656C147.521 114.643 145.9 114.137 144.008 114.137C139.189 114.137 136.802 116.117 136.802 120.122C136.802 122.424 138.694 124.404 142.522 126.107L147.341 128.317C150.944 129.928 153.376 131.77 154.682 133.842C155.988 135.913 156.664 138.169 156.664 140.609C156.574 142.681 156.078 144.522 155.087 146.134C154.097 147.745 152.791 149.08 151.079 150.185C149.413 151.29 147.566 152.119 145.449 152.671C143.378 153.224 141.306 153.5 139.144 153.5C135.046 153.408 131.578 152.533 128.695 150.922C129.641 148.252 130.272 145.673 130.632 143.279Z" fill="white"/>
<path d="M16.642 218.408C14.7607 218.408 12.936 218.159 11.168 217.66C9.42267 217.139 8.01733 216.47 6.952 215.654L8.822 211.506C9.842 212.254 11.0547 212.855 12.46 213.308C13.8653 213.761 15.2707 213.988 16.676 213.988C18.24 213.988 19.396 213.761 20.144 213.308C20.892 212.832 21.266 212.209 21.266 211.438C21.266 210.871 21.0393 210.407 20.586 210.044C20.1553 209.659 19.5887 209.353 18.886 209.126C18.206 208.899 17.2767 208.65 16.098 208.378C14.2847 207.947 12.8 207.517 11.644 207.086C10.488 206.655 9.49067 205.964 8.652 205.012C7.836 204.06 7.428 202.791 7.428 201.204C7.428 199.821 7.802 198.575 8.55 197.464C9.298 196.331 10.42 195.435 11.916 194.778C13.4347 194.121 15.282 193.792 17.458 193.792C18.9767 193.792 20.4613 193.973 21.912 194.336C23.3627 194.699 24.632 195.22 25.72 195.9L24.02 200.082C21.8213 198.835 19.6227 198.212 17.424 198.212C15.8827 198.212 14.738 198.461 13.99 198.96C13.2647 199.459 12.902 200.116 12.902 200.932C12.902 201.748 13.3213 202.36 14.16 202.768C15.0213 203.153 16.3247 203.539 18.07 203.924C19.8833 204.355 21.368 204.785 22.524 205.216C23.68 205.647 24.666 206.327 25.482 207.256C26.3207 208.185 26.74 209.443 26.74 211.03C26.74 212.39 26.3547 213.637 25.584 214.77C24.836 215.881 23.7027 216.765 22.184 217.422C20.6653 218.079 18.818 218.408 16.642 218.408ZM30.5036 194.2H36.0116V218H30.5036V194.2ZM63.4879 194.2V218H58.9659L47.0999 203.55V218H41.6599V194.2H46.2159L58.0479 208.65V194.2H63.4879ZM74.0489 198.688H66.4329V194.2H87.1729V198.688H79.5569V218H74.0489V198.688ZM105.3 218L100.71 211.37H100.438H95.6445V218H90.1365V194.2H100.438C102.546 194.2 104.371 194.551 105.912 195.254C107.476 195.957 108.678 196.954 109.516 198.246C110.355 199.538 110.774 201.068 110.774 202.836C110.774 204.604 110.344 206.134 109.482 207.426C108.644 208.695 107.442 209.67 105.878 210.35L111.216 218H105.3ZM105.198 202.836C105.198 201.499 104.768 200.479 103.906 199.776C103.045 199.051 101.787 198.688 100.132 198.688H95.6445V206.984H100.132C101.787 206.984 103.045 206.621 103.906 205.896C104.768 205.171 105.198 204.151 105.198 202.836ZM130.812 212.9H119.762L117.654 218H112.01L122.618 194.2H128.058L138.7 218H132.92L130.812 212.9ZM129.078 208.718L125.304 199.606L121.53 208.718H129.078ZM162.998 194.2V218H158.476L146.61 203.55V218H141.17V194.2H145.726L157.558 208.65V194.2H162.998ZM176.449 218.408C174.567 218.408 172.743 218.159 170.975 217.66C169.229 217.139 167.824 216.47 166.759 215.654L168.629 211.506C169.649 212.254 170.861 212.855 172.267 213.308C173.672 213.761 175.077 213.988 176.483 213.988C178.047 213.988 179.203 213.761 179.951 213.308C180.699 212.832 181.073 212.209 181.073 211.438C181.073 210.871 180.846 210.407 180.393 210.044C179.962 209.659 179.395 209.353 178.693 209.126C178.013 208.899 177.083 208.65 175.905 208.378C174.091 207.947 172.607 207.517 171.451 207.086C170.295 206.655 169.297 205.964 168.459 205.012C167.643 204.06 167.235 202.791 167.235 201.204C167.235 199.821 167.609 198.575 168.357 197.464C169.105 196.331 170.227 195.435 171.723 194.778C173.241 194.121 175.089 193.792 177.265 193.792C178.783 193.792 180.268 193.973 181.719 194.336C183.169 194.699 184.439 195.22 185.527 195.9L183.827 200.082C181.628 198.835 179.429 198.212 177.231 198.212C175.689 198.212 174.545 198.461 173.797 198.96C173.071 199.459 172.709 200.116 172.709 200.932C172.709 201.748 173.128 202.36 173.967 202.768C174.828 203.153 176.131 203.539 177.877 203.924C179.69 204.355 181.175 204.785 182.331 205.216C183.487 205.647 184.473 206.327 185.289 207.256C186.127 208.185 186.547 209.443 186.547 211.03C186.547 212.39 186.161 213.637 185.391 214.77C184.643 215.881 183.509 216.765 181.991 217.422C180.472 218.079 178.625 218.408 176.449 218.408Z" fill="white"/>
<line x1="1" y1="179" x2="195" y2="179" stroke="white" stroke-width="2" stroke-linecap="round"/>
<line x1="1" y1="232" x2="195" y2="232" stroke="white" stroke-width="2" stroke-linecap="round"/>
</svg>
